<?xml version="1.0" encoding="utf-8"?>
<!-- Generator: Adobe Illustrator 23.0.1, SVG Export Plug-In . SVG Version: 6.00 Build 0)  -->
<svg version="1.1" id="Layer_1" xmlns="http://www.w3.org/2000/svg" xmlns:xlink="http://www.w3.org/1999/xlink" x="0px" y="0px"
	 viewBox="0 0 100 100.6" style="enable-background:new 0 0 100 100.6;" xml:space="preserve">
<style type="text/css">
	.st0{fill:none;stroke:#000000;stroke-miterlimit:10;}
</style>
<g>
	<g>
		<g>
			<line class="st0" x1="42.2" y1="56.4" x2="42.2" y2="51"/>
		</g>
		<path class="st0" d="M53.9,66.5v-2.9c1.9-0.4,3.4-2.1,3.4-4.1v-4.3c0-0.1,0-0.1,0-0.2v-2.8c0-4-3.3-7.2-7.2-7.2h-0.7
			c-1.7,0-3.3,0.6-4.5,1.6c-1.3,1.1-2.3,2.6-2.6,4.3v0v5.4v3.2c0,2,1.5,3.7,3.4,4.1v2.9"/>
		<path class="st0" d="M68.2,77v19c0,0.4-0.1,0.8-0.2,1.2c-0.5,1.7-2.1,2.9-3.9,2.9H35.2c-1.7,0-3.2-1-3.8-2.5
			c-0.2-0.5-0.3-1-0.3-1.6V77c0-1.7,1-3.1,2.4-3.7c0,0,1.4-0.9,3.2-2c3.2-1.9,7.8-4.6,8.8-4.8l3.3,5.9c0.3,0.6,1.2,0.6,1.5,0
			l3.5-5.9c0,0,4.5,2.2,8.4,4.5c1.3,0.8,2.6,1.6,3.6,2.3c0.7,0.5,1.3,1.1,1.7,1.5c0.1,0.2,0.3,0.5,0.4,0.7v0
			C68.1,76,68.2,76.5,68.2,77z"/>
		<path class="st0" d="M67.6,74.8c-0.3-0.4-0.9-0.9-1.7-1.5"/>
		<path class="st0" d="M67.9,75.5c-0.1-0.3-0.2-0.5-0.4-0.7"/>
	</g>
	<g>
		<g>
			<line class="st0" x1="23" y1="60.8" x2="23" y2="56.2"/>
		</g>
		<path class="st0" d="M32.9,69.3v-2.4c1.6-0.3,2.8-1.7,2.8-3.4v-3.6c0-0.1,0-0.1,0-0.2v-2.4c0-3.3-2.7-6.1-6.1-6.1H29
			c-1.4,0-2.7,0.5-3.8,1.3c-1.1,0.9-1.9,2.2-2.2,3.6v0v4.6v2.7c0,1.7,1.2,3.1,2.8,3.4v2.4"/>
	</g>
	<g>
		<g>
			<line class="st0" x1="63.6" y1="60.4" x2="63.6" y2="55.8"/>
		</g>
		<path class="st0" d="M73.4,68.9v-2.4c1.6-0.3,2.8-1.7,2.8-3.4v-3.6c0-0.1,0-0.1,0-0.2v-2.4c0-3.3-2.7-6.1-6.1-6.1h-0.6
			c-1.4,0-2.7,0.5-3.8,1.3c-1.1,0.9-1.9,2.2-2.2,3.6v0v4.6v2.7c0,1.7,1.2,3.1,2.8,3.4v2.4"/>
		<path class="st0" d="M65.9,73.3c-1-0.7-2.3-1.5-3.6-2.3c1.8-1,3.5-1.9,4.1-2.1h0l2.7,4.8c0.3,0.6,1.2,0.6,1.5,0l2.8-4.8
			c0,0,5.3,2.6,8.8,4.8c0.5,0.3,0.9,0.6,1.3,0.9c0.6,0.4,1.1,0.9,1.4,1.3c0.1,0.2,0.2,0.4,0.3,0.6v0c0.2,0.4,0.3,0.8,0.3,1.2v16
			c0,0.3,0,0.7-0.2,1c-0.4,1.4-1.8,2.5-3.3,2.5h-14c0.1-0.4,0.2-0.8,0.2-1.2V77c0-0.5-0.1-1-0.3-1.5v0"/>
		<path class="st0" d="M67.6,74.8c-0.3-0.4-0.9-0.9-1.7-1.5"/>
		<path class="st0" d="M67.9,75.5c-0.1-0.3-0.2-0.5-0.4-0.7"/>
	</g>
	<g>
		<g>
			<line class="st0" x1="7.1" y1="65.2" x2="7.1" y2="61.5"/>
		</g>
		<path class="st0" d="M14.6,72V70c1.2-0.3,2.1-1.4,2.1-2.7v-2.9c0,0,0-0.1,0-0.1v-1.9c0-2.7-2.1-4.9-4.6-4.9h-0.5
			c-1.1,0-2.1,0.4-2.9,1.1c-0.9,0.7-1.5,1.7-1.7,2.9v0v3.7v2.1c0,1.4,0.9,2.5,2.2,2.7V72"/>
		<path class="st0" d="M17.8,73.7c-1.2,0.7-2.1,1.3-2.1,1.3c-1.2,0.5-2,1.8-2,3.1v16c0,0.2,0,0.4,0.1,0.6H2.6
			c-1.5,0-2.6-1.3-2.6-2.8V79.1C0,78,0.6,77,1.5,76.6c0,0,6.7-4.3,7.7-4.6l2.6,4.9l2.7-4.9C14.6,72,16,72.7,17.8,73.7z"/>
		<path class="st0" d="M36.8,71.3c-1.8,1.1-3.2,2-3.2,2c-1.4,0.7-2.4,2.1-2.4,3.7v19c0,0.6,0.1,1.1,0.3,1.6H17.1
			c-1.7,0-3.1-1.2-3.4-2.9c0-0.2-0.1-0.4-0.1-0.6v-16c0-1.4,0.8-2.6,2-3.1c0,0,0.9-0.5,2.1-1.3h0c2.7-1.6,7.1-4.2,8.1-4.4l2.7,4.8
			c0.3,0.6,1.2,0.6,1.5,0l2.8-4.8C32.9,69.3,34.6,70.1,36.8,71.3z"/>
	</g>
	<g>
		<g>
			<line class="st0" x1="83.4" y1="65.2" x2="83.4" y2="61.5"/>
		</g>
		<path class="st0" d="M90.8,72V70c1.2-0.3,2.1-1.4,2.1-2.7v-2.9c0,0,0-0.1,0-0.1v-1.9c0-2.7-2.1-4.9-4.6-4.9h-0.5
			c-1.1,0-2.1,0.4-2.9,1.1c-0.9,0.7-1.5,1.7-1.7,2.9v0v3.7v2.1c0,1.4,0.9,2.5,2.2,2.7V72"/>
		<path class="st0" d="M99.6,77.6c-0.2-0.3-0.6-0.6-1.1-1"/>
		<path class="st0" d="M100,79.1v12.8c0,1.5-1.2,2.8-2.6,2.8h-12c0.1-0.3,0.1-0.6,0.1-1v-16c0-0.4-0.1-0.9-0.2-1.2v0
			c-0.1-0.2-0.2-0.4-0.3-0.6c-0.3-0.4-0.8-0.8-1.4-1.3c-0.4-0.3-0.8-0.6-1.3-0.9c1.5-0.9,2.8-1.7,3.3-1.8l1.9,3.5
			c0.3,0.6,1.2,0.6,1.5,0l1.9-3.5c0,0,5.2,2.7,7.7,4.6c0.5,0.4,0.9,0.7,1.1,1c0.1,0.2,0.2,0.3,0.2,0.5v0
			C99.9,78.4,100,78.8,100,79.1z"/>
	</g>
	<g>
		<path class="st0" d="M68.5,19.4c0,9.2-6.6,16.9-15.3,18.5h0c-1.1,0.2-2.3,0.3-3.5,0.3c-1.3,0-2.5-0.1-3.8-0.4
			c-8.6-1.7-15.1-9.4-15.1-18.5c0-9.1,6.5-16.8,15.1-18.5c1.2-0.2,2.5-0.4,3.8-0.4c1.2,0,2.4,0.1,3.5,0.3h0
			C61.9,2.5,68.5,10.2,68.5,19.4z"/>
		<path class="st0" d="M68.5,19.4c0,9.2-6.6,16.9-15.3,18.5h0c-1.6,0.2-2.3,0.3-3.6-0.1c-7.8-2.5-11.8-10.6-11.8-18.4
			c0-7.8,5.2-15.8,12-18.5c1.1-0.4,2-0.2,3.3,0h0C61.9,2.5,68.5,10.2,68.5,19.4z"/>
		<path class="st0" d="M61,19.4c0,7.8-2.6,15.2-9.4,18c-2,0.8-4.2,0.6-5.7,0.5c-8.6-1.7-15.1-9.4-15.1-18.5
			c0-9.1,6.5-16.8,15.1-18.5c1.3-0.2,3.1-0.6,4.3-0.1C57,3.6,61,11.6,61,19.4z"/>
		<line class="st0" x1="31.6" y1="14" x2="67.7" y2="14"/>
		<line class="st0" x1="31.6" y1="25.7" x2="67.7" y2="25.7"/>
	</g>
</g>
</svg>
